<mxfile host="65bd71144e">
    <diagram id="gD8Um9ExjYh_pKNluFB0" name="Page-1">
        <mxGraphModel dx="2203" dy="2538" grid="1" gridSize="10" guides="1" tooltips="1" connect="1" arrows="1" fold="1" page="1" pageScale="1" pageWidth="850" pageHeight="1100" math="0" shadow="0">
            <root>
                <mxCell id="0"/>
                <mxCell id="1" parent="0"/>
                <mxCell id="133" value="" style="endArrow=classic;html=1;rounded=0;entryX=1;entryY=0.5;entryDx=0;entryDy=0;entryPerimeter=0;exitX=1;exitY=0.5;exitDx=0;exitDy=0;exitPerimeter=0;" edge="1" parent="1" source="175" target="170">
                    <mxGeometry width="50" height="50" relative="1" as="geometry">
                        <mxPoint x="530" y="440" as="sourcePoint"/>
                        <mxPoint x="440" y="350" as="targetPoint"/>
                    </mxGeometry>
                </mxCell>
                <mxCell id="134" value="" style="endArrow=classic;html=1;rounded=0;exitX=0.711;exitY=0.964;exitDx=0;exitDy=0;exitPerimeter=0;entryX=0.763;entryY=-0.053;entryDx=0;entryDy=0;entryPerimeter=0;" edge="1" parent="1" source="170" target="166">
                    <mxGeometry width="50" height="50" relative="1" as="geometry">
                        <mxPoint x="570" y="360" as="sourcePoint"/>
                        <mxPoint x="560" as="targetPoint"/>
                        <Array as="points">
                            <mxPoint x="870" y="260"/>
                            <mxPoint x="860" y="-50"/>
                        </Array>
                    </mxGeometry>
                </mxCell>
                <mxCell id="135" value="" style="endArrow=classic;html=1;rounded=0;exitX=0.944;exitY=0.744;exitDx=0;exitDy=0;exitPerimeter=0;entryX=0.872;entryY=0.062;entryDx=0;entryDy=0;entryPerimeter=0;" edge="1" parent="1" source="175" target="180">
                    <mxGeometry width="50" height="50" relative="1" as="geometry">
                        <mxPoint x="460" y="180" as="sourcePoint"/>
                        <mxPoint x="430" y="560" as="targetPoint"/>
                        <Array as="points">
                            <mxPoint x="480" y="260"/>
                            <mxPoint x="500" y="430"/>
                        </Array>
                    </mxGeometry>
                </mxCell>
                <mxCell id="144" value="" style="endArrow=classic;html=1;rounded=0;exitX=0.82;exitY=0.926;exitDx=0;exitDy=0;exitPerimeter=0;entryX=1.036;entryY=0.056;entryDx=0;entryDy=0;entryPerimeter=0;" edge="1" parent="1" source="170" target="166">
                    <mxGeometry width="50" height="50" relative="1" as="geometry">
                        <mxPoint x="730" y="560" as="sourcePoint"/>
                        <mxPoint x="550" as="targetPoint"/>
                        <Array as="points">
                            <mxPoint x="830" y="220"/>
                            <mxPoint x="830" y="-50"/>
                        </Array>
                    </mxGeometry>
                </mxCell>
                <mxCell id="149" value="" style="endArrow=classic;html=1;rounded=0;entryX=0.935;entryY=0.18;entryDx=0;entryDy=0;entryPerimeter=0;exitX=1;exitY=0.5;exitDx=0;exitDy=0;exitPerimeter=0;" edge="1" parent="1" source="166" target="180">
                    <mxGeometry width="50" height="50" relative="1" as="geometry">
                        <mxPoint x="810" y="-130" as="sourcePoint"/>
                        <mxPoint x="490" y="910" as="targetPoint"/>
                        <Array as="points">
                            <mxPoint x="740" y="-110"/>
                            <mxPoint x="640" y="290"/>
                            <mxPoint x="600" y="440"/>
                        </Array>
                    </mxGeometry>
                </mxCell>
                <mxCell id="151" value="" style="group" vertex="1" connectable="0" parent="1">
                    <mxGeometry x="90" y="290" width="332" height="460" as="geometry"/>
                </mxCell>
                <mxCell id="105" value="" style="verticalLabelPosition=bottom;verticalAlign=top;html=1;shape=mxgraph.basic.patternFillRect;fillStyle=diag;step=5;fillStrokeWidth=0.2;fillStrokeColor=#dddddd;" vertex="1" parent="151">
                    <mxGeometry x="9.014084507042254" y="17.692307692307693" width="306.4788732394366" height="442.3076923076924" as="geometry"/>
                </mxCell>
                <mxCell id="106" value="" style="verticalLabelPosition=bottom;verticalAlign=top;html=1;shape=mxgraph.basic.patternFillRect;fillStyle=diag;step=5;fillStrokeWidth=0.2;fillStrokeColor=#dddddd;" vertex="1" parent="151">
                    <mxGeometry x="9.014084507042254" width="54.08450704225352" height="17.692307692307693" as="geometry"/>
                </mxCell>
                <mxCell id="107" value="Moduł Pomiarów" style="text;html=1;strokeColor=none;fillColor=none;align=center;verticalAlign=middle;whiteSpace=wrap;rounded=0;" vertex="1" parent="151">
                    <mxGeometry x="63.09859154929577" width="198.3098591549296" height="17.692307692307693" as="geometry"/>
                </mxCell>
                <mxCell id="108" value="" style="rounded=0;whiteSpace=wrap;html=1;" vertex="1" parent="151">
                    <mxGeometry x="45.070422535211264" y="265.38461538461536" width="72.11267605633803" height="35.38461538461539" as="geometry"/>
                </mxCell>
                <mxCell id="109" value="" style="rounded=0;whiteSpace=wrap;html=1;" vertex="1" parent="151">
                    <mxGeometry x="45.070422535211264" y="194.6153846153846" width="72.11267605633803" height="35.38461538461539" as="geometry"/>
                </mxCell>
                <mxCell id="110" value="" style="rounded=0;whiteSpace=wrap;html=1;" vertex="1" parent="151">
                    <mxGeometry x="45.070422535211264" y="123.84615384615385" width="72.11267605633803" height="35.38461538461539" as="geometry"/>
                </mxCell>
                <mxCell id="111" value="" style="rounded=0;whiteSpace=wrap;html=1;" vertex="1" parent="151">
                    <mxGeometry x="45.070422535211264" y="53.07692307692308" width="72.11267605633803" height="35.38461538461539" as="geometry"/>
                </mxCell>
                <mxCell id="112" value="&lt;span style=&quot;font-size: 8px;&quot;&gt;Czujnik wilgotności&lt;/span&gt;" style="text;html=1;strokeColor=none;fillColor=none;align=center;verticalAlign=middle;whiteSpace=wrap;rounded=0;" vertex="1" parent="151">
                    <mxGeometry y="61.924615384615386" width="162.25352112676055" height="17.692307692307693" as="geometry"/>
                </mxCell>
                <mxCell id="113" value="Czujnik temperatury" style="text;html=1;strokeColor=none;fillColor=none;align=center;verticalAlign=middle;whiteSpace=wrap;rounded=0;fontSize=8;" vertex="1" parent="151">
                    <mxGeometry x="4.51" y="132.69384615384615" width="153.2394366197183" height="17.692307692307693" as="geometry"/>
                </mxCell>
                <mxCell id="114" value="Czujnik wiatru" style="text;html=1;strokeColor=none;fillColor=none;align=center;verticalAlign=middle;whiteSpace=wrap;rounded=0;fontSize=8;" vertex="1" parent="151">
                    <mxGeometry x="9.014084507042254" y="274.2323076923077" width="144.22535211267606" height="17.692307692307693" as="geometry"/>
                </mxCell>
                <mxCell id="115" value="Czujnik opadów" style="text;html=1;strokeColor=none;fillColor=none;align=center;verticalAlign=middle;whiteSpace=wrap;rounded=0;fontSize=8;" vertex="1" parent="151">
                    <mxGeometry x="4.51" y="203.46307692307693" width="153.2394366197183" height="17.692307692307693" as="geometry"/>
                </mxCell>
                <mxCell id="116" value="" style="rounded=0;whiteSpace=wrap;html=1;" vertex="1" parent="151">
                    <mxGeometry x="45.070422535211264" y="336.1538461538462" width="72.11267605633803" height="35.38461538461539" as="geometry"/>
                </mxCell>
                <mxCell id="117" value="Czujnik jakości powietrza" style="text;html=1;strokeColor=none;fillColor=none;align=center;verticalAlign=middle;whiteSpace=wrap;rounded=0;fontSize=8;" vertex="1" parent="151">
                    <mxGeometry x="36.13" y="345" width="90" height="17.69" as="geometry"/>
                </mxCell>
                <mxCell id="118" value="" style="rounded=0;whiteSpace=wrap;html=1;" vertex="1" parent="151">
                    <mxGeometry x="37.54" y="403.46" width="87.18" height="42.31" as="geometry"/>
                </mxCell>
                <mxCell id="119" value="Czujnik promieniowania słonecznego&amp;nbsp;" style="text;html=1;strokeColor=none;fillColor=none;align=center;verticalAlign=middle;whiteSpace=wrap;rounded=0;fontSize=8;" vertex="1" parent="151">
                    <mxGeometry x="36.13" y="415.77000000000004" width="90" height="17.69" as="geometry"/>
                </mxCell>
                <mxCell id="136" value="" style="endArrow=classic;html=1;rounded=0;entryX=0.361;entryY=0.128;entryDx=0;entryDy=0;entryPerimeter=0;exitX=1;exitY=0.75;exitDx=0;exitDy=0;exitPerimeter=0;" edge="1" parent="151" source="105" target="105">
                    <mxGeometry width="50" height="50" relative="1" as="geometry">
                        <mxPoint x="515.6056338028169" y="566.1538461538462" as="sourcePoint"/>
                        <mxPoint x="605.7464788732394" y="477.69230769230774" as="targetPoint"/>
                    </mxGeometry>
                </mxCell>
                <mxCell id="137" value="" style="endArrow=classic;html=1;rounded=0;entryX=0.361;entryY=0.288;entryDx=0;entryDy=0;entryPerimeter=0;exitX=1;exitY=0.75;exitDx=0;exitDy=0;exitPerimeter=0;" edge="1" parent="151" source="105" target="105">
                    <mxGeometry width="50" height="50" relative="1" as="geometry">
                        <mxPoint x="651.7183098591548" y="601.5384615384617" as="sourcePoint"/>
                        <mxPoint x="741.8591549295774" y="513.0769230769231" as="targetPoint"/>
                    </mxGeometry>
                </mxCell>
                <mxCell id="138" value="" style="endArrow=classic;html=1;rounded=0;entryX=0.361;entryY=0.44;entryDx=0;entryDy=0;entryPerimeter=0;" edge="1" parent="151" target="105">
                    <mxGeometry width="50" height="50" relative="1" as="geometry">
                        <mxPoint x="320" y="353.84615384615387" as="sourcePoint"/>
                        <mxPoint x="626.4788732394367" y="513.0769230769231" as="targetPoint"/>
                    </mxGeometry>
                </mxCell>
                <mxCell id="139" value="" style="endArrow=classic;html=1;rounded=0;entryX=0.361;entryY=0.6;entryDx=0;entryDy=0;entryPerimeter=0;exitX=1;exitY=0.75;exitDx=0;exitDy=0;exitPerimeter=0;" edge="1" parent="151" source="105" target="105">
                    <mxGeometry width="50" height="50" relative="1" as="geometry">
                        <mxPoint x="606.6478873239436" y="521.9230769230769" as="sourcePoint"/>
                        <mxPoint x="696.7887323943662" y="433.46153846153845" as="targetPoint"/>
                    </mxGeometry>
                </mxCell>
                <mxCell id="140" value="" style="endArrow=classic;html=1;rounded=0;entryX=0.361;entryY=0.788;entryDx=0;entryDy=0;entryPerimeter=0;exitX=1;exitY=0.75;exitDx=0;exitDy=0;exitPerimeter=0;" edge="1" parent="151" source="105" target="105">
                    <mxGeometry width="50" height="50" relative="1" as="geometry">
                        <mxPoint x="680.5633802816901" y="495.3846153846154" as="sourcePoint"/>
                        <mxPoint x="770.7042253521126" y="406.92307692307696" as="targetPoint"/>
                    </mxGeometry>
                </mxCell>
                <mxCell id="141" value="" style="endArrow=classic;html=1;rounded=0;entryX=1;entryY=0.75;entryDx=0;entryDy=0;" edge="1" parent="151" target="119">
                    <mxGeometry width="50" height="50" relative="1" as="geometry">
                        <mxPoint x="320" y="353.84615384615387" as="sourcePoint"/>
                        <mxPoint x="590.4225352112676" y="513.0769230769231" as="targetPoint"/>
                    </mxGeometry>
                </mxCell>
                <mxCell id="180" value="" style="shape=providedRequiredInterface;html=1;verticalLabelPosition=bottom;sketch=0;strokeColor=default;fillColor=default;rotation=0;" vertex="1" parent="151">
                    <mxGeometry x="312" y="343" width="20" height="20" as="geometry"/>
                </mxCell>
                <mxCell id="152" value="" style="group" vertex="1" connectable="0" parent="1">
                    <mxGeometry x="280" y="55" width="170" height="140" as="geometry"/>
                </mxCell>
                <mxCell id="104" value="Przetwornica napięcia" style="text;html=1;strokeColor=none;fillColor=none;align=center;verticalAlign=middle;whiteSpace=wrap;rounded=0;fontSize=8;" vertex="1" parent="152">
                    <mxGeometry x="67" y="60" width="90" height="10" as="geometry"/>
                </mxCell>
                <mxCell id="165" value="" style="group" vertex="1" connectable="0" parent="152">
                    <mxGeometry x="-120" y="-110" width="290" height="250" as="geometry"/>
                </mxCell>
                <mxCell id="92" value="" style="verticalLabelPosition=bottom;verticalAlign=top;html=1;shape=mxgraph.basic.patternFillRect;fillStyle=diag;step=5;fillStrokeWidth=0.2;fillStrokeColor=#dddddd;" vertex="1" parent="165">
                    <mxGeometry x="7.116883116883117" y="17.857142857142858" width="266.8831168831169" height="232.14285714285717" as="geometry"/>
                </mxCell>
                <mxCell id="93" value="" style="verticalLabelPosition=bottom;verticalAlign=top;html=1;shape=mxgraph.basic.patternFillRect;fillStyle=diag;step=5;fillStrokeWidth=0.2;fillStrokeColor=#dddddd;" vertex="1" parent="165">
                    <mxGeometry x="7.116883116883117" width="53.37662337662338" height="17.857142857142858" as="geometry"/>
                </mxCell>
                <mxCell id="94" value="&lt;font style=&quot;font-size: 11px;&quot;&gt;Moduł Zasilania&lt;/font&gt;" style="text;html=1;strokeColor=none;fillColor=none;align=center;verticalAlign=middle;whiteSpace=wrap;rounded=0;" vertex="1" parent="165">
                    <mxGeometry x="60.493506493506494" width="160.12987012987014" height="17.857142857142858" as="geometry"/>
                </mxCell>
                <mxCell id="95" value="" style="rounded=0;whiteSpace=wrap;html=1;" vertex="1" parent="165">
                    <mxGeometry x="167.24675324675326" y="53.57142857142858" width="71.16883116883118" height="35.714285714285715" as="geometry"/>
                </mxCell>
                <mxCell id="96" value="Przetwornik napięcia" style="rounded=0;whiteSpace=wrap;html=1;" vertex="1" parent="165">
                    <mxGeometry x="171.15675324675325" y="116.08" width="71.16883116883118" height="35.714285714285715" as="geometry"/>
                </mxCell>
                <mxCell id="97" value="" style="rounded=0;whiteSpace=wrap;html=1;" vertex="1" parent="165">
                    <mxGeometry x="24.90909090909091" y="125" width="71.16883116883118" height="35.714285714285715" as="geometry"/>
                </mxCell>
                <mxCell id="98" value="" style="rounded=0;whiteSpace=wrap;html=1;" vertex="1" parent="165">
                    <mxGeometry x="24.90909090909091" y="53.57142857142858" width="71.16883116883118" height="35.714285714285715" as="geometry"/>
                </mxCell>
                <mxCell id="99" value="&lt;font style=&quot;font-size: 8px;&quot;&gt;Panel solarny&lt;/font&gt;" style="text;html=1;strokeColor=none;fillColor=none;align=center;verticalAlign=middle;whiteSpace=wrap;rounded=0;" vertex="1" parent="165">
                    <mxGeometry y="62.504285714285714" width="119.20779220779222" height="17.857142857142858" as="geometry"/>
                </mxCell>
                <mxCell id="100" value="Kontroler ładowania" style="text;html=1;strokeColor=none;fillColor=none;align=center;verticalAlign=middle;whiteSpace=wrap;rounded=0;fontSize=8;" vertex="1" parent="165">
                    <mxGeometry x="165" y="62.5" width="70" height="17.86" as="geometry"/>
                </mxCell>
                <mxCell id="101" value="Baterie" style="text;html=1;strokeColor=none;fillColor=none;align=center;verticalAlign=middle;whiteSpace=wrap;rounded=0;fontSize=8;" vertex="1" parent="165">
                    <mxGeometry x="33.80558441558442" y="133.93285714285716" width="53.37662337662338" height="17.857142857142858" as="geometry"/>
                </mxCell>
                <mxCell id="103" value="" style="rounded=0;whiteSpace=wrap;html=1;" vertex="1" parent="165">
                    <mxGeometry x="96.07792207792208" y="196.42857142857142" width="71.16883116883118" height="35.714285714285715" as="geometry"/>
                </mxCell>
                <mxCell id="122" value="" style="endArrow=classic;html=1;rounded=0;exitX=0.75;exitY=1;exitDx=0;exitDy=0;entryX=0.312;entryY=0.449;entryDx=0;entryDy=0;entryPerimeter=0;" edge="1" parent="165" source="98" target="92">
                    <mxGeometry width="50" height="50" relative="1" as="geometry">
                        <mxPoint x="106.75324675324676" y="142.85714285714286" as="sourcePoint"/>
                        <mxPoint x="195.71428571428575" y="53.57142857142858" as="targetPoint"/>
                    </mxGeometry>
                </mxCell>
                <mxCell id="123" value="" style="endArrow=classic;html=1;rounded=0;entryX=0;entryY=0.5;entryDx=0;entryDy=0;exitX=1;exitY=0.5;exitDx=0;exitDy=0;" edge="1" parent="165" source="97" target="96">
                    <mxGeometry width="50" height="50" relative="1" as="geometry">
                        <mxPoint x="106.75324675324676" y="142.85714285714286" as="sourcePoint"/>
                        <mxPoint x="195.71428571428575" y="53.57142857142858" as="targetPoint"/>
                    </mxGeometry>
                </mxCell>
                <mxCell id="124" value="" style="endArrow=classic;html=1;rounded=0;entryX=0.339;entryY=0.249;entryDx=0;entryDy=0;entryPerimeter=0;exitX=0.592;exitY=0.264;exitDx=0;exitDy=0;exitPerimeter=0;" edge="1" parent="165" source="92" target="92">
                    <mxGeometry width="50" height="50" relative="1" as="geometry">
                        <mxPoint x="106.75324675324676" y="142.85714285714286" as="sourcePoint"/>
                        <mxPoint x="195.71428571428575" y="53.57142857142858" as="targetPoint"/>
                    </mxGeometry>
                </mxCell>
                <mxCell id="132" value="" style="endArrow=classic;html=1;rounded=0;exitX=0.68;exitY=0.572;exitDx=0;exitDy=0;exitPerimeter=0;entryX=0.444;entryY=0.766;entryDx=0;entryDy=0;entryPerimeter=0;" edge="1" parent="165" source="92" target="92">
                    <mxGeometry width="50" height="50" relative="1" as="geometry">
                        <mxPoint x="106.75324675324676" y="142.85714285714286" as="sourcePoint"/>
                        <mxPoint x="195.71428571428575" y="53.57142857142858" as="targetPoint"/>
                    </mxGeometry>
                </mxCell>
                <mxCell id="102" value="Układ zarządzania zasilaniem" style="text;html=1;strokeColor=none;fillColor=none;align=center;verticalAlign=middle;whiteSpace=wrap;rounded=0;fontSize=8;" vertex="1" parent="165">
                    <mxGeometry x="92.16" y="205.35999999999999" width="79" height="17.86" as="geometry"/>
                </mxCell>
                <mxCell id="175" value="" style="shape=providedRequiredInterface;html=1;verticalLabelPosition=bottom;sketch=0;strokeColor=default;fillColor=default;" vertex="1" parent="165">
                    <mxGeometry x="270" y="139" width="20" height="20" as="geometry"/>
                </mxCell>
                <mxCell id="176" value="" style="endArrow=classic;startArrow=classic;html=1;exitX=0.595;exitY=0.871;exitDx=0;exitDy=0;exitPerimeter=0;entryX=1;entryY=0.582;entryDx=0;entryDy=0;entryPerimeter=0;" edge="1" parent="165" source="92" target="92">
                    <mxGeometry width="50" height="50" relative="1" as="geometry">
                        <mxPoint x="200" y="225" as="sourcePoint"/>
                        <mxPoint x="250" y="175" as="targetPoint"/>
                    </mxGeometry>
                </mxCell>
                <mxCell id="153" value="" style="group" vertex="1" connectable="0" parent="1">
                    <mxGeometry x="90" y="-280" width="230" height="160" as="geometry"/>
                </mxCell>
                <mxCell id="57" value="" style="verticalLabelPosition=bottom;verticalAlign=top;html=1;shape=mxgraph.basic.patternFillRect;fillStyle=diag;step=5;fillStrokeWidth=0.2;fillStrokeColor=#dddddd;" vertex="1" parent="153">
                    <mxGeometry y="16" width="220.00000000000003" height="144" as="geometry"/>
                </mxCell>
                <mxCell id="58" value="" style="verticalLabelPosition=bottom;verticalAlign=top;html=1;shape=mxgraph.basic.patternFillRect;fillStyle=diag;step=5;fillStrokeWidth=0.2;fillStrokeColor=#dddddd;" vertex="1" parent="153">
                    <mxGeometry width="44" height="16" as="geometry"/>
                </mxCell>
                <mxCell id="59" value="Moduł Bazy danych" style="text;html=1;strokeColor=none;fillColor=none;align=center;verticalAlign=middle;whiteSpace=wrap;rounded=0;" vertex="1" parent="153">
                    <mxGeometry x="29.333333333333336" width="190.66666666666669" height="16" as="geometry"/>
                </mxCell>
                <mxCell id="60" value="" style="rounded=0;whiteSpace=wrap;html=1;" vertex="1" parent="153">
                    <mxGeometry x="132" y="48" width="58.66666666666667" height="32" as="geometry"/>
                </mxCell>
                <mxCell id="61" value="" style="rounded=0;whiteSpace=wrap;html=1;" vertex="1" parent="153">
                    <mxGeometry x="132" y="112" width="58.66666666666667" height="32" as="geometry"/>
                </mxCell>
                <mxCell id="62" value="" style="rounded=0;whiteSpace=wrap;html=1;" vertex="1" parent="153">
                    <mxGeometry x="14.666666666666668" y="112" width="58.66666666666667" height="32" as="geometry"/>
                </mxCell>
                <mxCell id="63" value="" style="rounded=0;whiteSpace=wrap;html=1;" vertex="1" parent="153">
                    <mxGeometry x="14.666666666666668" y="48" width="58.66666666666667" height="32" as="geometry"/>
                </mxCell>
                <mxCell id="64" value="&lt;font style=&quot;font-size: 8px;&quot;&gt;Baza danych SQL&lt;/font&gt;" style="text;html=1;strokeColor=none;fillColor=none;align=center;verticalAlign=middle;whiteSpace=wrap;rounded=0;" vertex="1" parent="153">
                    <mxGeometry x="15.340000000000002" y="56" width="57.33" height="16" as="geometry"/>
                </mxCell>
                <mxCell id="65" value="Serwer bazy danych" style="text;html=1;strokeColor=none;fillColor=none;align=center;verticalAlign=middle;whiteSpace=wrap;rounded=0;fontSize=8;" vertex="1" parent="153">
                    <mxGeometry x="12.3" y="120" width="63.4" height="16" as="geometry"/>
                </mxCell>
                <mxCell id="66" value="API" style="text;html=1;strokeColor=none;fillColor=none;align=center;verticalAlign=middle;whiteSpace=wrap;rounded=0;fontSize=8;" vertex="1" parent="153">
                    <mxGeometry x="139.33333333333334" y="56" width="44" height="16" as="geometry"/>
                </mxCell>
                <mxCell id="67" value="DBMS" style="text;html=1;strokeColor=none;fillColor=none;align=center;verticalAlign=middle;whiteSpace=wrap;rounded=0;fontSize=8;" vertex="1" parent="153">
                    <mxGeometry x="139.33" y="120" width="44" height="16" as="geometry"/>
                </mxCell>
                <mxCell id="129" value="" style="endArrow=classic;html=1;rounded=0;exitX=0.199;exitY=0.443;exitDx=0;exitDy=0;exitPerimeter=0;entryX=0.185;entryY=0.677;entryDx=0;entryDy=0;entryPerimeter=0;" edge="1" parent="153" source="57" target="57">
                    <mxGeometry width="50" height="50" relative="1" as="geometry">
                        <mxPoint x="330" y="112" as="sourcePoint"/>
                        <mxPoint x="403.33333333333337" y="32" as="targetPoint"/>
                    </mxGeometry>
                </mxCell>
                <mxCell id="130" value="" style="endArrow=classic;html=1;rounded=0;exitX=0.779;exitY=0.443;exitDx=0;exitDy=0;exitPerimeter=0;entryX=0.772;entryY=0.688;entryDx=0;entryDy=0;entryPerimeter=0;" edge="1" parent="153" source="57" target="57">
                    <mxGeometry width="50" height="50" relative="1" as="geometry">
                        <mxPoint x="315.33333333333337" y="176" as="sourcePoint"/>
                        <mxPoint x="388.6666666666667" y="96" as="targetPoint"/>
                    </mxGeometry>
                </mxCell>
                <mxCell id="131" value="" style="endArrow=classic;html=1;rounded=0;entryX=0.332;entryY=0.432;entryDx=0;entryDy=0;entryPerimeter=0;exitX=0.599;exitY=0.799;exitDx=0;exitDy=0;exitPerimeter=0;" edge="1" parent="153" source="57" target="57">
                    <mxGeometry width="50" height="50" relative="1" as="geometry">
                        <mxPoint x="300.6666666666667" y="160" as="sourcePoint"/>
                        <mxPoint x="374.00000000000006" y="80" as="targetPoint"/>
                    </mxGeometry>
                </mxCell>
                <mxCell id="161" value="" style="shape=providedRequiredInterface;html=1;verticalLabelPosition=bottom;sketch=0;" vertex="1" parent="153">
                    <mxGeometry x="210" y="78" width="20" height="20" as="geometry"/>
                </mxCell>
                <mxCell id="162" value="" style="endArrow=none;html=1;exitX=1;exitY=0.5;exitDx=0;exitDy=0;entryX=0.965;entryY=0.46;entryDx=0;entryDy=0;entryPerimeter=0;" edge="1" parent="153" source="60" target="57">
                    <mxGeometry width="50" height="50" relative="1" as="geometry">
                        <mxPoint x="260" y="30" as="sourcePoint"/>
                        <mxPoint x="310" y="-20" as="targetPoint"/>
                    </mxGeometry>
                </mxCell>
                <mxCell id="154" value="" style="group" vertex="1" connectable="0" parent="1">
                    <mxGeometry x="880" y="-240" width="300.05999999999995" height="180" as="geometry"/>
                </mxCell>
                <mxCell id="68" value="" style="verticalLabelPosition=bottom;verticalAlign=top;html=1;shape=mxgraph.basic.patternFillRect;fillStyle=diag;step=5;fillStrokeWidth=0.2;fillStrokeColor=#dddddd;strokeColor=default;fillColor=default;" vertex="1" parent="154">
                    <mxGeometry y="12.142857142857142" width="227.27272727272725" height="157.85714285714283" as="geometry"/>
                </mxCell>
                <mxCell id="69" value="" style="verticalLabelPosition=bottom;verticalAlign=top;html=1;shape=mxgraph.basic.patternFillRect;fillStyle=diag;step=5;fillStrokeWidth=0.2;fillStrokeColor=#dddddd;" vertex="1" parent="154">
                    <mxGeometry width="42.61363636363636" height="12.142857142857142" as="geometry"/>
                </mxCell>
                <mxCell id="71" value="" style="rounded=0;whiteSpace=wrap;html=1;" vertex="1" parent="154">
                    <mxGeometry x="28.410909090909087" y="28.928571428571423" width="56.81818181818181" height="24.285714285714285" as="geometry"/>
                </mxCell>
                <mxCell id="72" value="" style="rounded=0;whiteSpace=wrap;html=1;" vertex="1" parent="154">
                    <mxGeometry x="152.9009090909091" y="103.21000000000001" width="56.81818181818181" height="24.285714285714285" as="geometry"/>
                </mxCell>
                <mxCell id="73" value="" style="rounded=0;whiteSpace=wrap;html=1;" vertex="1" parent="154">
                    <mxGeometry x="57.154545454545456" y="85" width="56.81818181818181" height="24.285714285714285" as="geometry"/>
                </mxCell>
                <mxCell id="74" value="" style="rounded=0;whiteSpace=wrap;html=1;" vertex="1" parent="154">
                    <mxGeometry x="127.84454545454545" y="20.538571428571423" width="56.81818181818181" height="24.285714285714285" as="geometry"/>
                </mxCell>
                <mxCell id="76" value="ROM" style="text;html=1;strokeColor=none;fillColor=none;align=center;verticalAlign=middle;whiteSpace=wrap;rounded=0;fontSize=8;" vertex="1" parent="154">
                    <mxGeometry x="59.99545454545455" y="91.06714285714284" width="51.13636363636363" height="12.142857142857142" as="geometry"/>
                </mxCell>
                <mxCell id="77" value="CPU" style="text;html=1;strokeColor=none;fillColor=none;align=center;verticalAlign=middle;whiteSpace=wrap;rounded=0;fontSize=8;" vertex="1" parent="154">
                    <mxGeometry x="35.513181818181806" y="36.425714285714285" width="42.61363636363636" height="12.142857142857142" as="geometry"/>
                </mxCell>
                <mxCell id="78" value="RAM" style="text;html=1;strokeColor=none;fillColor=none;align=center;verticalAlign=middle;whiteSpace=wrap;rounded=0;fontSize=8;" vertex="1" parent="154">
                    <mxGeometry x="160.00318181818182" y="109.28714285714284" width="42.61363636363636" height="12.142857142857142" as="geometry"/>
                </mxCell>
                <mxCell id="120" value="" style="rounded=0;whiteSpace=wrap;html=1;" vertex="1" parent="154">
                    <mxGeometry x="73.86363636363636" y="133.57142857142856" width="56.81818181818181" height="24.285714285714285" as="geometry"/>
                </mxCell>
                <mxCell id="156" style="edgeStyle=none;html=1;exitX=0.323;exitY=0.843;exitDx=0;exitDy=0;entryX=0.208;entryY=1.061;entryDx=0;entryDy=0;entryPerimeter=0;startArrow=none;startFill=0;endArrow=classic;endFill=1;exitPerimeter=0;" edge="1" parent="154" source="68" target="71">
                    <mxGeometry relative="1" as="geometry">
                        <Array as="points">
                            <mxPoint x="40" y="145"/>
                        </Array>
                    </mxGeometry>
                </mxCell>
                <mxCell id="121" value="Pamięć masowa" style="text;html=1;strokeColor=none;fillColor=none;align=center;verticalAlign=middle;whiteSpace=wrap;rounded=0;fontSize=8;" vertex="1" parent="154">
                    <mxGeometry x="76.7031818181818" y="139.64285714285714" width="51.13636363636363" height="12.142857142857142" as="geometry"/>
                </mxCell>
                <mxCell id="145" value="" style="endArrow=classic;html=1;rounded=0;entryX=1;entryY=0.5;entryDx=0;entryDy=0;exitX=0.027;exitY=0.48;exitDx=0;exitDy=0;exitPerimeter=0;" edge="1" parent="154" source="74" target="71">
                    <mxGeometry width="50" height="50" relative="1" as="geometry">
                        <mxPoint x="71.02272727272727" y="60.71428571428571" as="sourcePoint"/>
                        <mxPoint x="142.04545454545453" as="targetPoint"/>
                    </mxGeometry>
                </mxCell>
                <mxCell id="146" value="" style="endArrow=classic;html=1;rounded=0;entryX=0.592;entryY=0.215;entryDx=0;entryDy=0;entryPerimeter=0;" edge="1" parent="154" target="68">
                    <mxGeometry width="50" height="50" relative="1" as="geometry">
                        <mxPoint x="59.65909090909123" y="85" as="sourcePoint"/>
                        <mxPoint x="59.65909090909123" y="60.71428571428571" as="targetPoint"/>
                    </mxGeometry>
                </mxCell>
                <mxCell id="147" value="" style="endArrow=classic;html=1;rounded=0;exitX=0.5;exitY=0;exitDx=0;exitDy=0;entryX=0.5;entryY=1;entryDx=0;entryDy=0;" edge="1" parent="154" target="74" source="72">
                    <mxGeometry width="50" height="50" relative="1" as="geometry">
                        <mxPoint x="127.8409090909091" y="97.14285714285714" as="sourcePoint"/>
                        <mxPoint x="198.86363636363635" y="36.42857142857142" as="targetPoint"/>
                    </mxGeometry>
                </mxCell>
                <mxCell id="148" value="" style="endArrow=classic;html=1;rounded=0;entryX=0.331;entryY=0.991;entryDx=0;entryDy=0;entryPerimeter=0;" edge="1" parent="154" target="74">
                    <mxGeometry width="50" height="50" relative="1" as="geometry">
                        <mxPoint x="106.5340909090909" y="133.57142857142856" as="sourcePoint"/>
                        <mxPoint x="177.5568181818182" y="72.85714285714285" as="targetPoint"/>
                    </mxGeometry>
                </mxCell>
                <mxCell id="70" value="&lt;font style=&quot;font-size: 11px;&quot;&gt;Moduł Jednostki głównej&lt;/font&gt;" style="text;html=1;strokeColor=none;fillColor=none;align=center;verticalAlign=middle;whiteSpace=wrap;rounded=0;" vertex="1" parent="154">
                    <mxGeometry x="28.409090909090907" width="207.38636363636363" height="12.142857142857142" as="geometry"/>
                </mxCell>
                <mxCell id="75" value="&lt;p style=&quot;line-height: 50%;&quot;&gt;&lt;font style=&quot;font-size: 8px;&quot;&gt;Magistrala Danych&lt;/font&gt;&lt;/p&gt;" style="text;html=1;strokeColor=none;fillColor=none;align=center;verticalAlign=middle;whiteSpace=wrap;rounded=0;" vertex="1" parent="154">
                    <mxGeometry x="135.2" y="28.93" width="42.1" height="7.5" as="geometry"/>
                </mxCell>
                <mxCell id="166" value="" style="shape=providedRequiredInterface;html=1;verticalLabelPosition=bottom;sketch=0;strokeColor=default;fillColor=default;rotation=-180;" vertex="1" parent="154">
                    <mxGeometry x="-10" y="71.07" width="20" height="20" as="geometry"/>
                </mxCell>
                <mxCell id="169" value="" style="endArrow=classic;startArrow=classic;html=1;exitX=0.035;exitY=0.407;exitDx=0;exitDy=0;exitPerimeter=0;entryX=0;entryY=0.5;entryDx=0;entryDy=0;" edge="1" parent="154" source="68" target="71">
                    <mxGeometry width="50" height="50" relative="1" as="geometry">
                        <mxPoint x="10" y="10" as="sourcePoint"/>
                        <mxPoint x="60" y="-40" as="targetPoint"/>
                    </mxGeometry>
                </mxCell>
                <mxCell id="155" value="" style="group" vertex="1" connectable="0" parent="1">
                    <mxGeometry x="920" y="174" width="290" height="290" as="geometry"/>
                </mxCell>
                <mxCell id="79" value="" style="verticalLabelPosition=bottom;verticalAlign=top;html=1;shape=mxgraph.basic.patternFillRect;fillStyle=diag;step=5;fillStrokeWidth=0.2;fillStrokeColor=#dddddd;" vertex="1" parent="155">
                    <mxGeometry y="18.666666666666668" width="290" height="261.3333333333333" as="geometry"/>
                </mxCell>
                <mxCell id="80" value="" style="verticalLabelPosition=bottom;verticalAlign=top;html=1;shape=mxgraph.basic.patternFillRect;fillStyle=diag;step=5;fillStrokeWidth=0.2;fillStrokeColor=#dddddd;" vertex="1" parent="155">
                    <mxGeometry width="58" height="18.666666666666668" as="geometry"/>
                </mxCell>
                <mxCell id="82" value="" style="rounded=0;whiteSpace=wrap;html=1;" vertex="1" parent="155">
                    <mxGeometry x="174" y="56" width="77.33333333333333" height="37.333333333333336" as="geometry"/>
                </mxCell>
                <mxCell id="83" value="" style="rounded=0;whiteSpace=wrap;html=1;" vertex="1" parent="155">
                    <mxGeometry x="174" y="130.66666666666666" width="77.33333333333333" height="37.333333333333336" as="geometry"/>
                </mxCell>
                <mxCell id="84" value="" style="rounded=0;whiteSpace=wrap;html=1;" vertex="1" parent="155">
                    <mxGeometry x="19.333333333333332" y="130.66666666666666" width="77.33333333333333" height="37.333333333333336" as="geometry"/>
                </mxCell>
                <mxCell id="85" value="" style="rounded=0;whiteSpace=wrap;html=1;" vertex="1" parent="155">
                    <mxGeometry x="19.333333333333332" y="56" width="77.33333333333333" height="37.333333333333336" as="geometry"/>
                </mxCell>
                <mxCell id="86" value="&lt;font style=&quot;font-size: 8px;&quot;&gt;Klawiatura&lt;/font&gt;" style="text;html=1;strokeColor=none;fillColor=none;align=center;verticalAlign=middle;whiteSpace=wrap;rounded=0;" vertex="1" parent="155">
                    <mxGeometry x="3.87" y="65.33333333333334" width="108.26666666666667" height="18.666666666666668" as="geometry"/>
                </mxCell>
                <mxCell id="87" value="Głośnik" style="text;html=1;strokeColor=none;fillColor=none;align=center;verticalAlign=middle;whiteSpace=wrap;rounded=0;fontSize=8;" vertex="1" parent="155">
                    <mxGeometry x="23.2" y="140" width="69.6" height="18.666666666666668" as="geometry"/>
                </mxCell>
                <mxCell id="88" value="Wyświetlacz LCD" style="text;html=1;strokeColor=none;fillColor=none;align=center;verticalAlign=middle;whiteSpace=wrap;rounded=0;fontSize=8;" vertex="1" parent="155">
                    <mxGeometry x="145.00333333333333" y="65.33333333333334" width="135.33333333333334" height="18.666666666666668" as="geometry"/>
                </mxCell>
                <mxCell id="89" value="Diody LED" style="text;html=1;strokeColor=none;fillColor=none;align=center;verticalAlign=middle;whiteSpace=wrap;rounded=0;fontSize=8;" vertex="1" parent="155">
                    <mxGeometry x="164.33666666666667" y="140" width="96.66666666666667" height="18.666666666666668" as="geometry"/>
                </mxCell>
                <mxCell id="90" value="" style="rounded=0;whiteSpace=wrap;html=1;" vertex="1" parent="155">
                    <mxGeometry x="96.66666666666667" y="224" width="77.33333333333333" height="37.333333333333336" as="geometry"/>
                </mxCell>
                <mxCell id="91" value="Sterownik interfejsu użytkownika" style="text;html=1;strokeColor=none;fillColor=none;align=center;verticalAlign=middle;whiteSpace=wrap;rounded=0;fontSize=8;" vertex="1" parent="155">
                    <mxGeometry x="96.67" y="233.32999999999998" width="76.47" height="18.67" as="geometry"/>
                </mxCell>
                <mxCell id="125" value="" style="endArrow=classic;html=1;rounded=0;entryX=0.525;entryY=0.767;entryDx=0;entryDy=0;entryPerimeter=0;exitX=0.25;exitY=1;exitDx=0;exitDy=0;exitPerimeter=0;" edge="1" parent="155" source="83" target="79">
                    <mxGeometry width="50" height="50" relative="1" as="geometry">
                        <mxPoint x="166.26666666666668" y="168" as="sourcePoint"/>
                        <mxPoint x="262.93333333333334" y="74.66666666666667" as="targetPoint"/>
                    </mxGeometry>
                </mxCell>
                <mxCell id="126" value="" style="endArrow=classic;html=1;rounded=0;entryX=0.332;entryY=0.817;entryDx=0;entryDy=0;entryPerimeter=0;exitX=0.085;exitY=0.574;exitDx=0;exitDy=0;exitPerimeter=0;" edge="1" parent="155" source="79" target="79">
                    <mxGeometry width="50" height="50" relative="1" as="geometry">
                        <mxPoint x="-425.3333333333333" y="130.66666666666666" as="sourcePoint"/>
                        <mxPoint x="-328.6666666666667" y="37.333333333333336" as="targetPoint"/>
                    </mxGeometry>
                </mxCell>
                <mxCell id="127" value="" style="endArrow=classic;html=1;rounded=0;exitX=0.319;exitY=0.281;exitDx=0;exitDy=0;exitPerimeter=0;entryX=0.405;entryY=0.774;entryDx=0;entryDy=0;entryPerimeter=0;" edge="1" parent="155" source="79" target="79">
                    <mxGeometry width="50" height="50" relative="1" as="geometry">
                        <mxPoint x="87" y="345.3333333333333" as="sourcePoint"/>
                        <mxPoint x="183.66666666666666" y="252" as="targetPoint"/>
                    </mxGeometry>
                </mxCell>
                <mxCell id="128" value="" style="endArrow=classic;html=1;rounded=0;exitX=0.599;exitY=0.274;exitDx=0;exitDy=0;exitPerimeter=0;entryX=0.485;entryY=0.771;entryDx=0;entryDy=0;entryPerimeter=0;" edge="1" parent="155" source="79" target="79">
                    <mxGeometry width="50" height="50" relative="1" as="geometry">
                        <mxPoint x="-193.33333333333334" y="466.6666666666667" as="sourcePoint"/>
                        <mxPoint x="-96.66666666666667" y="373.3333333333333" as="targetPoint"/>
                    </mxGeometry>
                </mxCell>
                <mxCell id="81" value="&lt;font style=&quot;font-size: 10px;&quot;&gt;Moduł Interfejsu użytkownika&lt;/font&gt;" style="text;html=1;strokeColor=none;fillColor=none;align=center;verticalAlign=middle;whiteSpace=wrap;rounded=0;" vertex="1" parent="155">
                    <mxGeometry x="92.79999999999995" y="4.329999999999984" width="140" height="10" as="geometry"/>
                </mxCell>
                <mxCell id="174" value="" style="endArrow=classic;startArrow=classic;html=1;exitX=0.031;exitY=0.849;exitDx=0;exitDy=0;exitPerimeter=0;entryX=0;entryY=0.75;entryDx=0;entryDy=0;" edge="1" parent="155" source="79" target="91">
                    <mxGeometry width="50" height="50" relative="1" as="geometry">
                        <mxPoint x="50" y="260" as="sourcePoint"/>
                        <mxPoint x="100" y="210" as="targetPoint"/>
                    </mxGeometry>
                </mxCell>
                <mxCell id="159" value="Interfejs API" style="whiteSpace=wrap;html=1;rounded=1;arcSize=50;align=center;verticalAlign=middle;strokeWidth=1;autosize=1;spacing=4;treeFolding=1;treeMoving=1;newEdgeStyle={&quot;edgeStyle&quot;:&quot;entityRelationEdgeStyle&quot;,&quot;startArrow&quot;:&quot;none&quot;,&quot;endArrow&quot;:&quot;none&quot;,&quot;segment&quot;:10,&quot;curved&quot;:1,&quot;sourcePerimeterSpacing&quot;:0,&quot;targetPerimeterSpacing&quot;:0};" vertex="1" parent="1">
                    <mxGeometry x="357" y="-320" width="110" height="30" as="geometry"/>
                </mxCell>
                <mxCell id="160" value="" style="edgeStyle=entityRelationEdgeStyle;startArrow=none;endArrow=none;segment=10;curved=1;sourcePerimeterSpacing=0;targetPerimeterSpacing=0;exitX=0.568;exitY=0.231;exitDx=0;exitDy=0;exitPerimeter=0;" edge="1" target="159" parent="1" source="161">
                    <mxGeometry relative="1" as="geometry">
                        <mxPoint x="65" y="-56" as="sourcePoint"/>
                    </mxGeometry>
                </mxCell>
                <mxCell id="143" value="" style="endArrow=classic;html=1;rounded=0;entryX=1.058;entryY=0.334;entryDx=0;entryDy=0;entryPerimeter=0;exitX=0.817;exitY=1.022;exitDx=0;exitDy=0;exitPerimeter=0;" edge="1" parent="1" source="166" target="161">
                    <mxGeometry width="50" height="50" relative="1" as="geometry">
                        <mxPoint x="540" y="-20" as="sourcePoint"/>
                        <mxPoint x="300" y="30" as="targetPoint"/>
                        <Array as="points">
                            <mxPoint x="420" y="-180"/>
                        </Array>
                    </mxGeometry>
                </mxCell>
                <mxCell id="167" value="WiFi" style="whiteSpace=wrap;html=1;rounded=1;arcSize=50;align=center;verticalAlign=middle;strokeWidth=1;autosize=1;spacing=4;treeFolding=1;treeMoving=1;newEdgeStyle={&quot;edgeStyle&quot;:&quot;entityRelationEdgeStyle&quot;,&quot;startArrow&quot;:&quot;none&quot;,&quot;endArrow&quot;:&quot;none&quot;,&quot;segment&quot;:10,&quot;curved&quot;:1,&quot;sourcePerimeterSpacing&quot;:0,&quot;targetPerimeterSpacing&quot;:0};strokeColor=default;fillColor=default;" vertex="1" parent="1">
                    <mxGeometry x="770" y="-260" width="70" height="30" as="geometry"/>
                </mxCell>
                <mxCell id="168" value="" style="edgeStyle=entityRelationEdgeStyle;startArrow=none;endArrow=none;segment=10;curved=1;sourcePerimeterSpacing=0;targetPerimeterSpacing=0;exitX=0.225;exitY=0.881;exitDx=0;exitDy=0;exitPerimeter=0;" edge="1" target="167" parent="1" source="166">
                    <mxGeometry relative="1" as="geometry">
                        <mxPoint x="700" y="10" as="sourcePoint"/>
                    </mxGeometry>
                </mxCell>
                <mxCell id="170" value="" style="shape=providedRequiredInterface;html=1;verticalLabelPosition=bottom;sketch=0;strokeColor=default;fillColor=default;rotation=-180;" vertex="1" parent="1">
                    <mxGeometry x="910" y="406" width="20" height="20" as="geometry"/>
                </mxCell>
                <mxCell id="171" value="Bluetooth" style="whiteSpace=wrap;html=1;rounded=1;arcSize=50;align=center;verticalAlign=middle;strokeWidth=1;autosize=1;spacing=4;treeFolding=1;treeMoving=1;newEdgeStyle={&quot;edgeStyle&quot;:&quot;entityRelationEdgeStyle&quot;,&quot;startArrow&quot;:&quot;none&quot;,&quot;endArrow&quot;:&quot;none&quot;,&quot;segment&quot;:10,&quot;curved&quot;:1,&quot;sourcePerimeterSpacing&quot;:0,&quot;targetPerimeterSpacing&quot;:0};strokeColor=default;fillColor=default;" vertex="1" parent="1">
                    <mxGeometry x="750" y="520" width="100" height="30" as="geometry"/>
                </mxCell>
                <mxCell id="172" value="" style="edgeStyle=entityRelationEdgeStyle;startArrow=none;endArrow=none;segment=10;curved=1;sourcePerimeterSpacing=0;targetPerimeterSpacing=0;exitX=0.801;exitY=0.015;exitDx=0;exitDy=0;exitPerimeter=0;" edge="1" target="171" parent="1" source="170">
                    <mxGeometry relative="1" as="geometry">
                        <mxPoint x="790" y="562" as="sourcePoint"/>
                    </mxGeometry>
                </mxCell>
                <mxCell id="177" value="RS232" style="whiteSpace=wrap;html=1;rounded=1;arcSize=50;align=center;verticalAlign=middle;strokeWidth=1;autosize=1;spacing=4;treeFolding=1;treeMoving=1;newEdgeStyle={&quot;edgeStyle&quot;:&quot;entityRelationEdgeStyle&quot;,&quot;startArrow&quot;:&quot;none&quot;,&quot;endArrow&quot;:&quot;none&quot;,&quot;segment&quot;:10,&quot;curved&quot;:1,&quot;sourcePerimeterSpacing&quot;:0,&quot;targetPerimeterSpacing&quot;:0};strokeColor=default;fillColor=default;" vertex="1" parent="1">
                    <mxGeometry x="435" y="-100" width="80" height="30" as="geometry"/>
                </mxCell>
                <mxCell id="178" value="" style="edgeStyle=entityRelationEdgeStyle;startArrow=none;endArrow=none;segment=10;curved=1;sourcePerimeterSpacing=0;targetPerimeterSpacing=0;exitX=0.411;exitY=0.221;exitDx=0;exitDy=0;exitPerimeter=0;" edge="1" target="177" parent="1" source="175">
                    <mxGeometry relative="1" as="geometry">
                        <mxPoint x="490" y="-58" as="sourcePoint"/>
                    </mxGeometry>
                </mxCell>
                <mxCell id="181" value="WiFi" style="whiteSpace=wrap;html=1;rounded=1;arcSize=50;align=center;verticalAlign=middle;strokeWidth=1;autosize=1;spacing=4;treeFolding=1;treeMoving=1;newEdgeStyle={&quot;edgeStyle&quot;:&quot;entityRelationEdgeStyle&quot;,&quot;startArrow&quot;:&quot;none&quot;,&quot;endArrow&quot;:&quot;none&quot;,&quot;segment&quot;:10,&quot;curved&quot;:1,&quot;sourcePerimeterSpacing&quot;:0,&quot;targetPerimeterSpacing&quot;:0};strokeColor=default;fillColor=default;" vertex="1" parent="1">
                    <mxGeometry x="515" y="691" width="70" height="30" as="geometry"/>
                </mxCell>
                <mxCell id="182" value="" style="edgeStyle=entityRelationEdgeStyle;startArrow=none;endArrow=none;segment=10;curved=1;sourcePerimeterSpacing=0;targetPerimeterSpacing=0;exitX=0.655;exitY=0.464;exitDx=0;exitDy=0;exitPerimeter=0;" edge="1" target="181" parent="1" source="180">
                    <mxGeometry relative="1" as="geometry">
                        <mxPoint x="470" y="733" as="sourcePoint"/>
                    </mxGeometry>
                </mxCell>
            </root>
        </mxGraphModel>
    </diagram>
</mxfile>